<svg width="1440" height="821" viewBox="0 0 1440 821" fill="none" xmlns="http://www.w3.org/2000/svg">
<g clip-path="url(#clip0_196_4969)">
<rect width="1440" height="821" fill="white"/>
<g filter="url(#filter0_d_196_4969)">
<rect width="1225" height="751" transform="translate(215 70)" fill="white"/>
</g>
<rect width="1225" height="751" transform="translate(215 70)" fill="#F8F8F8"/>
<g clip-path="url(#clip1_196_4969)">
<path d="M798 238.11V285.939C798 286.691 798.609 287.3 799.36 287.3H856.64C857.391 287.3 858 286.691 858 285.939V244.848C858 244.097 857.391 243.488 856.64 243.488H819.838L816.02 238.953C814.882 237.584 813.193 236.792 811.413 236.795H799.36C798.626 236.795 798.024 237.376 798 238.11ZM800.721 239.47H811.458C812.429 239.47 813.35 239.902 813.97 240.649L818.196 245.701C818.454 246.01 818.836 246.19 819.239 246.19H855.279V284.579H800.721V239.47ZM835.255 259.386L829.923 264.745L835.255 270.132C835.619 270.471 835.769 270.982 835.646 271.464C835.523 271.946 835.146 272.322 834.664 272.446C834.182 272.569 833.672 272.419 833.333 272.055L828 266.677L822.631 272.046C822.087 272.435 821.341 272.371 820.871 271.894C820.402 271.418 820.348 270.671 820.745 270.132L826.077 264.745L820.745 259.386C820.374 258.846 820.44 258.119 820.901 257.655C821.363 257.191 822.09 257.122 822.631 257.49L828 262.832L833.369 257.49C833.91 257.122 834.637 257.191 835.099 257.655C835.56 258.119 835.626 258.846 835.255 259.386Z" fill="#3BB75E"/>
</g>
<text fill="#57584E" xml:space="preserve" style="white-space: pre" font-family="Graphik" font-size="21" letter-spacing="0em"><tspan x="747.033" y="329.989">Virtual Terminals</tspan></text>
<text fill="#3676C8" xml:space="preserve" style="white-space: pre" font-family="Graphik" font-size="14" letter-spacing="0px"><tspan x="824.794" y="384.926">Learn More</tspan></text>
<text fill="#57584E" xml:space="preserve" style="white-space: pre" font-family="Graphik" font-size="14" letter-spacing="0px"><tspan x="821.089" y="384.926"> </tspan></text>
<text fill="#57584E" xml:space="preserve" style="white-space: pre" font-family="Graphik" font-size="14" letter-spacing="0px"><tspan x="650.922" y="364.926">Dedicated accounts for each of your agents at various </tspan><tspan x="757.474" y="384.926">locations.</tspan></text>
<g filter="url(#filter1_d_196_4969)">
<rect width="1225" height="66" transform="translate(215 70)" fill="white"/>
<g clip-path="url(#clip2_196_4969)">
<text fill="#919191" xml:space="preserve" style="white-space: pre" font-family="Graphik" font-size="14" font-weight="500" letter-spacing="0em"><tspan x="264.971" y="108.326">Filters</tspan></text>
<path d="M257.833 98.25H246.167L250.833 103.768V107.583L253.167 108.75V103.768L257.833 98.25Z" fill="#919191"/>
<line x1="333" y1="85" x2="333" y2="123" stroke="#EFEFEF"/>
<rect x="359.5" y="86.5" width="223" height="35" rx="4.5" fill="white"/>
<text fill="#C1C1C1" xml:space="preserve" style="white-space: pre" font-family="Graphik" font-size="14" letter-spacing="0em"><tspan x="371" y="108.326">Search virtual terminals</tspan></text>
<rect x="359.5" y="86.5" width="223" height="35" rx="4.5" stroke="#F5F5F5"/>
</g>
<path d="M1237.5 93C1237.5 91.5916 1237.5 90.5654 1237.57 89.7567C1237.63 88.9539 1237.76 88.4096 1237.99 87.957C1238.42 87.1103 1239.11 86.4219 1239.96 85.9905C1240.41 85.7599 1240.95 85.6321 1241.76 85.5665C1242.57 85.5004 1243.59 85.5 1245 85.5H1402C1403.41 85.5 1404.43 85.5004 1405.24 85.5665C1406.05 85.6321 1406.59 85.7599 1407.04 85.9905C1407.89 86.4219 1408.58 87.1103 1409.01 87.957C1409.24 88.4096 1409.37 88.9539 1409.43 89.7567C1409.5 90.5654 1409.5 91.5916 1409.5 93V113C1409.5 114.408 1409.5 115.435 1409.43 116.243C1409.37 117.046 1409.24 117.59 1409.01 118.043C1408.58 118.89 1407.89 119.578 1407.04 120.01C1406.59 120.24 1406.05 120.368 1405.24 120.434C1404.43 120.5 1403.41 120.5 1402 120.5H1245C1243.59 120.5 1242.57 120.5 1241.76 120.434C1240.95 120.368 1240.41 120.24 1239.96 120.01C1239.11 119.578 1238.42 118.89 1237.99 118.043L1237.54 118.27L1237.99 118.043C1237.76 117.59 1237.63 117.046 1237.57 116.243C1237.5 115.435 1237.5 114.408 1237.5 113V93Z" fill="#3BB75E"/>
<text fill="white" xml:space="preserve" style="white-space: pre" font-family="Graphik" font-size="14" font-weight="500" letter-spacing="0em"><tspan x="1249" y="107.326">+ New Virtual Terminal</tspan></text>
<path d="M1237.5 93C1237.5 91.5916 1237.5 90.5654 1237.57 89.7567C1237.63 88.9539 1237.76 88.4096 1237.99 87.957C1238.42 87.1103 1239.11 86.4219 1239.96 85.9905C1240.41 85.7599 1240.95 85.6321 1241.76 85.5665C1242.57 85.5004 1243.59 85.5 1245 85.5H1402C1403.41 85.5 1404.43 85.5004 1405.24 85.5665C1406.05 85.6321 1406.59 85.7599 1407.04 85.9905C1407.89 86.4219 1408.58 87.1103 1409.01 87.957C1409.24 88.4096 1409.37 88.9539 1409.43 89.7567C1409.5 90.5654 1409.5 91.5916 1409.5 93V113C1409.5 114.408 1409.5 115.435 1409.43 116.243C1409.37 117.046 1409.24 117.59 1409.01 118.043C1408.58 118.89 1407.89 119.578 1407.04 120.01C1406.59 120.24 1406.05 120.368 1405.24 120.434C1404.43 120.5 1403.41 120.5 1402 120.5H1245C1243.59 120.5 1242.57 120.5 1241.76 120.434C1240.95 120.368 1240.41 120.24 1239.96 120.01C1239.11 119.578 1238.42 118.89 1237.99 118.043L1237.54 118.27L1237.99 118.043C1237.76 117.59 1237.63 117.046 1237.57 116.243C1237.5 115.435 1237.5 114.408 1237.5 113V93Z" stroke="#3BB75E"/>
</g>
<rect width="1224" height="64" transform="translate(216)" fill="white"/>
<line x1="216" y1="63.5" x2="1440" y2="63.5" stroke="#F5F5F5"/>
<rect x="1247" y="22" width="37" height="20" rx="10" fill="#3BB75E"/>
<circle cx="1274" cy="32" r="8" fill="white"/>
<text fill="#3BB75E" xml:space="preserve" style="white-space: pre" font-family="Graphik" font-size="14" font-weight="500" letter-spacing="0px"><tspan x="1292" y="36.326">Live</tspan></text>
<path d="M1350.67 38.5C1350.75 38.7885 1350.93 39.0417 1351.17 39.2219C1351.41 39.4021 1351.7 39.4994 1352 39.4994C1352.3 39.4994 1352.59 39.4021 1352.84 39.2219C1353.08 39.0417 1353.25 38.7885 1353.34 38.5" stroke="#919191" stroke-linecap="round" stroke-linejoin="round"/>
<path d="M1352 26V24.5" stroke="#919191" stroke-linecap="round" stroke-linejoin="round"/>
<path d="M1352 26C1353.33 26 1354.6 26.5268 1355.54 27.4645C1356.47 28.4021 1357 29.6739 1357 31C1357 35.6973 1358 36.5 1358 36.5H1346C1346 36.5 1347 35.2227 1347 31C1347 29.6739 1347.53 28.4021 1348.46 27.4645C1349.4 26.5268 1350.67 26 1352 26V26Z" stroke="#919191" stroke-linecap="round" stroke-linejoin="round"/>
<path d="M1388.5 30.5C1388.5 31.4283 1388.87 32.3185 1389.53 32.9749C1390.18 33.6313 1391.07 34 1392 34C1392.93 34 1393.82 33.6313 1394.47 32.9749C1395.13 32.3185 1395.5 31.4283 1395.5 30.5C1395.5 29.5717 1395.13 28.6815 1394.47 28.0251C1393.82 27.3687 1392.93 27 1392 27C1391.07 27 1390.18 27.3687 1389.53 28.0251C1388.87 28.6815 1388.5 29.5717 1388.5 30.5V30.5Z" stroke="#919191" stroke-linecap="round" stroke-linejoin="round"/>
<path d="M1396.61 37.9173C1396 37.3097 1395.29 36.8274 1394.5 36.4984C1393.7 36.1693 1392.86 35.9999 1392 35.9999C1391.14 35.9999 1390.3 36.1693 1389.5 36.4984C1388.71 36.8274 1388 37.3097 1387.39 37.9173" stroke="#919191" stroke-linecap="round" stroke-linejoin="round"/>
<path d="M1384.5 32C1384.5 33.9891 1385.29 35.8968 1386.7 37.3033C1388.1 38.7098 1390.01 39.5 1392 39.5C1393.99 39.5 1395.9 38.7098 1397.3 37.3033C1398.71 35.8968 1399.5 33.9891 1399.5 32C1399.5 30.0109 1398.71 28.1032 1397.3 26.6967C1395.9 25.2902 1393.99 24.5 1392 24.5C1390.01 24.5 1388.1 25.2902 1386.7 26.6967C1385.29 28.1032 1384.5 30.0109 1384.5 32V32Z" stroke="#919191" stroke-linecap="round" stroke-linejoin="round"/>
<path d="M1407.88 31.2185L1406.09 33.005C1406.08 33.0166 1406.06 33.0258 1406.05 33.0321C1406.03 33.0384 1406.02 33.0416 1406 33.0416C1405.98 33.0416 1405.97 33.0384 1405.95 33.0321C1405.94 33.0258 1405.92 33.0166 1405.91 33.005L1404.12 31.2185" stroke="#919191" stroke-linecap="round" stroke-linejoin="round"/>
<g clip-path="url(#clip3_196_4969)">
<g clip-path="url(#clip4_196_4969)">
<text fill="#919191" xml:space="preserve" style="white-space: pre" font-family="Graphik" font-size="14" letter-spacing="0px"><tspan x="246" y="40.326">Physical Terminals</tspan></text>
<path d="M294 63H318V64H294V63Z" fill="#F5F5F5"/>
</g>
<g clip-path="url(#clip5_196_4969)">
<text fill="#4576C2" xml:space="preserve" style="white-space: pre" font-family="Graphik" font-size="14" font-weight="500" letter-spacing="0px"><tspan x="406" y="40.326">Virtual Terminals</tspan></text>
<path d="M406 62H518V64H406V62Z" fill="#4576C2"/>
</g>
</g>
<path d="M742.5 419C742.5 417.592 742.5 416.565 742.566 415.757C742.632 414.954 742.76 414.41 742.99 413.957C743.422 413.11 744.11 412.422 744.957 411.99C745.41 411.76 745.954 411.632 746.757 411.566C747.565 411.5 748.592 411.5 750 411.5H907C908.408 411.5 909.435 411.5 910.243 411.566C911.046 411.632 911.59 411.76 912.043 411.99C912.89 412.422 913.578 413.11 914.01 413.957C914.24 414.41 914.368 414.954 914.434 415.757C914.5 416.565 914.5 417.592 914.5 419V439C914.5 440.408 914.5 441.435 914.434 442.243C914.368 443.046 914.24 443.59 914.01 444.043C913.578 444.89 912.89 445.578 912.043 446.01C911.59 446.24 911.046 446.368 910.243 446.434C909.435 446.5 908.408 446.5 907 446.5H750C748.592 446.5 747.565 446.5 746.757 446.434C745.954 446.368 745.41 446.24 744.957 446.01C744.11 445.578 743.422 444.89 742.99 444.043L742.545 444.27L742.99 444.043C742.76 443.59 742.632 443.046 742.566 442.243C742.5 441.435 742.5 440.408 742.5 439V419Z" fill="#3BB75E"/>
<text fill="white" xml:space="preserve" style="white-space: pre" font-family="Graphik" font-size="14" font-weight="500" letter-spacing="0em"><tspan x="754" y="433.326">+ New Virtual Terminal</tspan></text>
<path d="M742.5 419C742.5 417.592 742.5 416.565 742.566 415.757C742.632 414.954 742.76 414.41 742.99 413.957C743.422 413.11 744.11 412.422 744.957 411.99C745.41 411.76 745.954 411.632 746.757 411.566C747.565 411.5 748.592 411.5 750 411.5H907C908.408 411.5 909.435 411.5 910.243 411.566C911.046 411.632 911.59 411.76 912.043 411.99C912.89 412.422 913.578 413.11 914.01 413.957C914.24 414.41 914.368 414.954 914.434 415.757C914.5 416.565 914.5 417.592 914.5 419V439C914.5 440.408 914.5 441.435 914.434 442.243C914.368 443.046 914.24 443.59 914.01 444.043C913.578 444.89 912.89 445.578 912.043 446.01C911.59 446.24 911.046 446.368 910.243 446.434C909.435 446.5 908.408 446.5 907 446.5H750C748.592 446.5 747.565 446.5 746.757 446.434C745.954 446.368 745.41 446.24 744.957 446.01C744.11 445.578 743.422 444.89 742.99 444.043L742.545 444.27L742.99 444.043C742.76 443.59 742.632 443.046 742.566 442.243C742.5 441.435 742.5 440.408 742.5 439V419Z" stroke="#3BB75E"/>
<rect width="215" height="821" fill="#011B33"/>
<rect x="10" y="10" width="195" height="56" rx="3" fill="#1D3449"/>
<text fill="white" xml:space="preserve" style="white-space: pre" font-family="Graphik" font-size="14" letter-spacing="0em"><tspan x="25" y="32.326">Paystack</tspan></text>
<text fill="#91A0AF" xml:space="preserve" style="white-space: pre" font-family="Graphik" font-size="12" font-weight="500" letter-spacing="0px"><tspan x="25" y="51.2794">100041</tspan></text>
<path d="M177 36.0286L181 39.7238L185 36.0286" stroke="white" stroke-linecap="round" stroke-linejoin="round"/>
<g clip-path="url(#clip6_196_4969)">
<path d="M26 112.667V106H30V112.667M22 104L28 99.3333L34 104V111.333C34 111.687 33.8595 112.026 33.6095 112.276C33.3594 112.526 33.0203 112.667 32.6667 112.667H23.3333C22.9797 112.667 22.6406 112.526 22.3905 112.276C22.1405 112.026 22 111.687 22 111.333V104Z" stroke="white" stroke-linecap="round" stroke-linejoin="round"/>
<text fill="white" xml:space="preserve" style="white-space: pre" font-family="Graphik" font-size="14" letter-spacing="0em"><tspan x="46" y="110.326">Home</tspan></text>
</g>
<text fill="#91A0AF" xml:space="preserve" style="white-space: pre" font-family="Graphik" font-size="12" font-weight="500" letter-spacing="0px"><tspan x="20" y="149.708">PAYMENTS</tspan></text>
<g clip-path="url(#clip7_196_4969)">
<path d="M20.6667 174.667H35.3334M22.0001 170.667H34.0001C34.7365 170.667 35.3334 171.264 35.3334 172V180C35.3334 180.736 34.7365 181.333 34.0001 181.333H22.0001C21.2637 181.333 20.6667 180.736 20.6667 180V172C20.6667 171.264 21.2637 170.667 22.0001 170.667Z" stroke="white" stroke-linecap="round" stroke-linejoin="round"/>
<text fill="white" xml:space="preserve" style="white-space: pre" font-family="Graphik" font-size="14" letter-spacing="0em"><tspan x="46" y="180.326">Transactions</tspan></text>
</g>
<g clip-path="url(#clip8_196_4969)">
<path d="M31.3334 212V210.667C31.3334 209.959 31.0525 209.281 30.5524 208.781C30.0523 208.281 29.374 208 28.6667 208H23.3334C22.6262 208 21.9479 208.281 21.4478 208.781C20.9477 209.281 20.6667 209.959 20.6667 210.667V212M35.3334 212V210.667C35.333 210.076 35.1363 209.502 34.7743 209.035C34.4123 208.568 33.9055 208.234 33.3334 208.087M30.6667 200.087C31.2404 200.234 31.7488 200.567 32.1118 201.035C32.4749 201.503 32.672 202.078 32.672 202.67C32.672 203.262 32.4749 203.837 32.1118 204.305C31.7488 204.773 31.2404 205.106 30.6667 205.253M28.6667 202.667C28.6667 204.139 27.4728 205.333 26.0001 205.333C24.5273 205.333 23.3334 204.139 23.3334 202.667C23.3334 201.194 24.5273 200 26.0001 200C27.4728 200 28.6667 201.194 28.6667 202.667Z" stroke="white" stroke-linecap="round" stroke-linejoin="round"/>
<text fill="white" xml:space="preserve" style="white-space: pre" font-family="Graphik" font-size="14" letter-spacing="0em"><tspan x="46" y="210.326">Customers</tspan></text>
</g>
<g clip-path="url(#clip9_196_4969)">
<path d="M25 235.667L27.6667 238.333M27.6667 238.333L30.3333 235.667M27.6667 238.333L27.6667 233M34.3333 235.667C34.3333 239.349 31.3486 242.333 27.6667 242.333C23.9848 242.333 21 239.349 21 235.667C21 231.985 23.9848 229 27.6667 229C31.3486 229 34.3333 231.985 34.3333 235.667Z" stroke="white" stroke-linecap="round" stroke-linejoin="round"/>
<text fill="white" xml:space="preserve" style="white-space: pre" font-family="Graphik" font-size="14" letter-spacing="0em"><tspan x="46" y="240.326">Payouts</tspan></text>
</g>
<g clip-path="url(#clip10_196_4969)">
<path d="M22.6667 268C22.6667 268 23.3334 267.333 25.3334 267.333C27.3334 267.333 28.6667 268.667 30.6667 268.667C32.6667 268.667 33.3334 268 33.3334 268V260C33.3334 260 32.6667 260.667 30.6667 260.667C28.6667 260.667 27.3334 259.333 25.3334 259.333C23.3334 259.333 22.6667 260 22.6667 260V268ZM22.6667 268V272.667" stroke="white" stroke-linecap="round" stroke-linejoin="round"/>
<text fill="white" xml:space="preserve" style="white-space: pre" font-family="Graphik" font-size="14" letter-spacing="0em"><tspan x="46" y="270.326">Disputes</tspan></text>
</g>
<g clip-path="url(#clip11_196_4969)">
<path d="M20.6667 291.667V295.667M20.6667 295.667H24.6667M20.6667 295.667L23.7601 292.76C24.6807 291.841 25.875 291.246 27.1632 291.065C28.4514 290.883 29.7635 291.126 30.902 291.755C32.0404 292.384 32.9435 293.367 33.4752 294.554C34.0068 295.741 34.1382 297.069 33.8496 298.337C33.5609 299.606 32.8679 300.746 31.8748 301.586C30.8818 302.427 29.6426 302.921 28.3439 302.996C27.0452 303.071 25.7574 302.722 24.6745 302.001C23.5916 301.28 22.7723 300.227 22.3401 299" stroke="white" stroke-linecap="round" stroke-linejoin="round"/>
<text fill="white" xml:space="preserve" style="white-space: pre" font-family="Graphik" font-size="14" letter-spacing="0em"><tspan x="46" y="300.326">Subscriptions</tspan></text>
</g>
<g clip-path="url(#clip12_196_4969)">
<g clip-path="url(#clip13_196_4969)">
<path d="M21.3333 330.333L27.9999 333.667L34.6666 330.333M21.3333 327L27.9999 330.333L34.6666 327M27.9999 320.333L21.3333 323.667L27.9999 327L34.6666 323.667L27.9999 320.333Z" stroke="white" stroke-linecap="round" stroke-linejoin="round"/>
</g>
<text fill="white" xml:space="preserve" style="white-space: pre" font-family="Graphik" font-size="14" letter-spacing="0em"><tspan x="46" y="330.326">Plans</tspan></text>
</g>
<g clip-path="url(#clip14_196_4969)">
<path d="M35.504 353.705C35.4838 353.755 35.454 353.801 35.4164 353.84L32.6175 356.639C32.5388 356.718 32.432 356.762 32.3207 356.762C32.2094 356.762 32.1027 356.718 32.024 356.639C31.9453 356.56 31.9011 356.454 31.9011 356.342C31.9011 356.231 31.9453 356.124 32.024 356.045L34.108 353.961H31.5856C31.178 353.961 30.7745 354.042 30.3983 354.199C30.0222 354.356 29.6809 354.586 29.3942 354.876C29.1076 355.166 28.8813 355.51 28.7284 355.887C28.5755 356.265 28.4991 356.67 28.5035 357.077V363.397C28.5035 363.508 28.4591 363.616 28.3801 363.695C28.301 363.774 28.1938 363.818 28.082 363.818C27.9702 363.818 27.863 363.774 27.7839 363.695C27.7049 363.616 27.6605 363.508 27.6605 363.397V357.077C27.6614 356.673 27.5825 356.272 27.4284 355.897C27.2744 355.523 27.0481 355.183 26.7625 354.896C26.4769 354.609 26.1377 354.381 25.7641 354.226C25.3905 354.07 24.9899 353.989 24.5851 353.988H22.0965L24.1805 356.072C24.2592 356.151 24.3034 356.258 24.3034 356.369C24.3034 356.48 24.2592 356.587 24.1805 356.666C24.1018 356.745 23.995 356.789 23.8837 356.789C23.7724 356.789 23.6657 356.745 23.587 356.666L20.7881 353.867C20.7489 353.828 20.7179 353.782 20.6967 353.731C20.6755 353.68 20.6646 353.625 20.6646 353.57C20.6646 353.515 20.6755 353.461 20.6967 353.41C20.7179 353.359 20.7489 353.312 20.7881 353.274L23.587 350.475C23.6657 350.396 23.7724 350.352 23.8837 350.352C23.995 350.352 24.1018 350.396 24.1805 350.475C24.2592 350.553 24.3034 350.66 24.3034 350.771C24.3034 350.883 24.2592 350.99 24.1805 351.068L22.0965 353.152H24.5851C25.3112 353.152 26.023 353.354 26.6411 353.735C27.2592 354.116 27.7592 354.662 28.0854 355.31C28.4106 354.66 28.9102 354.114 29.5284 353.731C30.1465 353.349 30.8588 353.146 31.5856 353.145H34.0742L31.9903 351.068C31.9116 350.99 31.8674 350.883 31.8674 350.771C31.8674 350.66 31.9116 350.553 31.9903 350.475C32.069 350.396 32.1757 350.352 32.287 350.352C32.3983 350.352 32.5051 350.396 32.5838 350.475L35.3826 353.274C35.4418 353.327 35.4846 353.395 35.5061 353.472C35.5276 353.548 35.5269 353.629 35.504 353.705Z" fill="white"/>
<text fill="white" xml:space="preserve" style="white-space: pre" font-family="Graphik" font-size="14" letter-spacing="0em"><tspan x="46" y="360.326">Transaction Splits</tspan></text>
</g>
<g clip-path="url(#clip15_196_4969)">
<path d="M23.6667 391C23.6667 390.558 23.8423 390.134 24.1549 389.821C24.4675 389.509 24.8914 389.333 25.3334 389.333H34.3334M23.6667 391C23.6667 391.442 23.8423 391.866 24.1549 392.178C24.4675 392.491 24.8914 392.667 25.3334 392.667H34.3334V379.333H25.3334C24.8914 379.333 24.4675 379.509 24.1549 379.821C23.8423 380.134 23.6667 380.558 23.6667 381V391Z" stroke="white" stroke-linecap="round" stroke-linejoin="round"/>
<text fill="white" xml:space="preserve" style="white-space: pre" font-family="Graphik" font-size="14" letter-spacing="0em"><tspan x="46" y="390.326">Subaccounts</tspan></text>
</g>
<g clip-path="url(#clip16_196_4969)">
<path d="M32.65 415H32V410.34C32 409.985 31.8589 409.644 31.6076 409.392C31.3563 409.141 31.0154 409 30.66 409H23.34C22.9846 409 22.6438 409.141 22.3925 409.392C22.1412 409.644 22 409.985 22 410.34V415H21.35C21.1724 414.999 20.9962 415.033 20.8318 415.1C20.6675 415.167 20.5181 415.267 20.3925 415.392C20.2669 415.518 20.1675 415.667 20.1001 415.832C20.0327 415.996 19.9987 416.172 20 416.35V421.65C19.9987 421.828 20.0327 422.004 20.1001 422.168C20.1675 422.333 20.2669 422.482 20.3925 422.608C20.5181 422.733 20.6675 422.833 20.8318 422.9C20.9962 422.967 21.1724 423.001 21.35 423H32.65C32.8277 423.001 33.0038 422.967 33.1682 422.9C33.3326 422.833 33.482 422.733 33.6076 422.608C33.7332 422.482 33.8326 422.333 33.9 422.168C33.9674 422.004 34.0014 421.828 34 421.65V416.35C34.0014 416.172 33.9674 415.996 33.9 415.832C33.8326 415.667 33.7332 415.518 33.6076 415.392C33.482 415.267 33.3326 415.167 33.1682 415.1C33.0038 415.033 32.8277 414.999 32.65 415ZM30.65 410C30.7402 410 30.8267 410.036 30.8905 410.1C30.9542 410.163 30.99 410.25 30.99 410.34V415H29V410H30.65ZM23 410.34C23 410.25 23.0359 410.163 23.0996 410.1C23.1634 410.036 23.2499 410 23.34 410H28V415H23V410.34ZM33 421.65C33 421.743 32.9632 421.832 32.8975 421.897C32.8319 421.963 32.7429 422 32.65 422H21.35C21.2572 422 21.1682 421.963 21.1026 421.897C21.0369 421.832 21 421.743 21 421.65V416.35C21 416.257 21.0369 416.168 21.1026 416.103C21.1682 416.037 21.2572 416 21.35 416H32.65C32.7429 416 32.8319 416.037 32.8975 416.103C32.9632 416.168 33 416.257 33 416.35V421.65Z" fill="#09A4DA"/>
</g>
<text fill="#09A4DA" xml:space="preserve" style="white-space: pre" font-family="Graphik" font-size="14" font-weight="500" letter-spacing="0em"><tspan x="44" y="420.326">Terminals</tspan></text>
<text fill="#91A0AF" xml:space="preserve" style="white-space: pre" font-family="Graphik" font-size="12" font-weight="500" letter-spacing="0px"><tspan x="20" y="459.708">TRANSFERS</tspan></text>
<g clip-path="url(#clip17_196_4969)">
<g clip-path="url(#clip18_196_4969)">
<path d="M34.6666 479.333L27.3333 486.667M34.6666 479.333L29.9999 492.667L27.3333 486.667M34.6666 479.333L21.3333 484L27.3333 486.667" stroke="white" stroke-linecap="round" stroke-linejoin="round"/>
</g>
<text fill="white" xml:space="preserve" style="white-space: pre" font-family="Graphik" font-size="14" letter-spacing="0em"><tspan x="46" y="490.326">Transfers</tspan></text>
</g>
<g clip-path="url(#clip19_196_4969)">
<path fill-rule="evenodd" clip-rule="evenodd" d="M21.7001 520.713C21.7001 521.067 22.0112 521.354 22.3937 521.354H33.6065C33.9867 521.354 34.3001 521.065 34.3001 520.713V513.598C34.3001 513.244 33.989 512.957 33.6065 512.957H22.3937C22.0135 512.957 21.7001 513.246 21.7001 513.598V520.713ZM22.3937 512.311H33.6065C34.3762 512.311 35.0001 512.888 35.0001 513.598V520.713C35.0001 521.424 34.3713 522 33.6065 522H22.3937C21.624 522 21.0001 521.423 21.0001 520.713V513.598C21.0001 512.887 21.6288 512.311 22.3937 512.311Z" fill="white"/>
<path fill-rule="evenodd" clip-rule="evenodd" d="M35.0001 515.541H31.8566C30.8788 515.541 30.1001 516.264 30.1001 517.156C30.1001 518.054 30.8865 518.77 31.8566 518.77H35.0001V518.125H31.8566C31.2698 518.125 30.8001 517.694 30.8001 517.156C30.8001 516.618 31.2679 516.187 31.8566 516.187H35.0001V515.541Z" fill="white"/>
<path fill-rule="evenodd" clip-rule="evenodd" d="M32.0228 510.674C32.5243 510.555 32.8969 510.825 32.895 511.304L32.8883 512.926L33.5883 512.929L33.5949 511.306C33.5986 510.406 32.7955 509.824 31.8491 510.048L22.0715 512.358L21.5829 513.141L32.0228 510.674Z" fill="white"/>
<path fill-rule="evenodd" clip-rule="evenodd" d="M35.0001 513.598C35.0001 512.93 34.4474 512.38 33.7408 512.317C33.6966 512.313 33.6518 512.311 33.6065 512.311L33.5908 512.311L33.5949 511.306C33.5986 510.406 32.7955 509.824 31.8491 510.048L22.2373 512.319C22.18 512.325 22.1237 512.334 22.0687 512.347C22.0648 512.348 22.0609 512.348 22.057 512.349C21.9905 512.365 21.9259 512.384 21.8635 512.408C21.3586 512.601 21.0001 513.061 21.0001 513.598V520.713C21.0001 521.423 21.624 522 22.3937 522H33.6065C34.3713 522 35.0001 521.424 35.0001 520.713V513.598ZM34.3001 515.541V513.598C34.3001 513.286 34.0579 513.026 33.7381 512.969C33.6955 512.961 33.6515 512.957 33.6065 512.957H22.3937C22.3809 512.957 22.3682 512.957 22.3557 512.958L22.0978 513.019C21.9859 513.068 21.8901 513.145 21.8206 513.239C21.7447 513.341 21.7001 513.465 21.7001 513.598V520.713C21.7001 521.067 22.0112 521.354 22.3937 521.354H33.6065C33.9867 521.354 34.3001 521.065 34.3001 520.713V518.77H31.8566C30.8865 518.77 30.1001 518.054 30.1001 517.156C30.1001 516.264 30.8788 515.541 31.8566 515.541H34.3001ZM34.1501 518.92H31.8566C30.8162 518.92 29.9501 518.149 29.9501 517.156C29.9501 516.17 30.8076 515.391 31.8566 515.391H34.1501V513.598C34.1501 513.338 33.9176 513.107 33.6065 513.107H22.3937C22.3878 513.107 22.382 513.107 22.3762 513.107L22.1448 513.162C21.9672 513.246 21.8501 513.415 21.8501 513.598V520.713C21.8501 520.973 22.0826 521.204 22.3937 521.204H33.6065C33.9154 521.204 34.1501 520.972 34.1501 520.713V518.92ZM32.895 511.304C32.8969 510.825 32.5243 510.555 32.0228 510.674L25.0934 512.311H32.8908L32.895 511.304ZM32.7414 512.161L32.745 511.303C32.7458 511.105 32.6705 510.966 32.5598 510.886C32.4472 510.805 32.2758 510.768 32.0573 510.82L26.3805 512.161H32.7414ZM34.3001 516.187H31.8566C31.2679 516.187 30.8001 516.618 30.8001 517.156C30.8001 517.694 31.2698 518.125 31.8566 518.125H34.3001V516.187ZM34.1501 517.975V516.337H31.8566C31.3385 516.337 30.9501 516.713 30.9501 517.156C30.9501 517.599 31.3401 517.975 31.8566 517.975H34.1501ZM22.2114 512.171L31.8147 509.902C32.3258 509.781 32.8087 509.876 33.1661 510.134C33.5247 510.393 33.747 510.809 33.7449 511.307L33.7414 512.167C34.5214 512.23 35.1501 512.838 35.1501 513.598V520.713C35.1501 521.518 34.4423 522.15 33.6065 522.15H22.3937C21.5526 522.15 20.8501 521.517 20.8501 520.713V513.598C20.8501 512.852 21.4575 512.255 22.2114 512.171Z" fill="white"/>
<text fill="white" xml:space="preserve" style="white-space: pre" font-family="Graphik" font-size="14" letter-spacing="0em"><tspan x="46" y="520.326">Balance</tspan></text>
</g>
<text fill="#91A0AF" xml:space="preserve" style="white-space: pre" font-family="Graphik" font-size="12" font-weight="500" letter-spacing="0px"><tspan x="20" y="559.708">COMMERCE</tspan></text>
<g clip-path="url(#clip20_196_4969)">
<g clip-path="url(#clip21_196_4969)">
<path d="M21.5466 582.107L27.9999 585.333M27.9999 585.333L34.4533 582.107M27.9999 585.333L28 593.173M24.6666 580.333L31.3333 583.667M28.5933 578.967L33.9266 581.633C34.1488 581.744 34.3357 581.914 34.4664 582.125C34.5972 582.336 34.6665 582.579 34.6666 582.827V589.18C34.6665 589.428 34.5972 589.671 34.4664 589.882C34.3357 590.093 34.1488 590.263 33.9266 590.373L28.5933 593.04C28.408 593.133 28.2038 593.181 27.9966 593.181C27.7895 593.181 27.5852 593.133 27.4 593.04L22.0666 590.373C21.8447 590.262 21.6585 590.09 21.5289 589.878C21.3993 589.666 21.3316 589.422 21.3333 589.173V582.827C21.3334 582.579 21.4027 582.336 21.5335 582.125C21.6642 581.914 21.8511 581.744 22.0733 581.633L27.4066 578.967C27.591 578.875 27.7941 578.827 28 578.827C28.2058 578.827 28.4089 578.875 28.5933 578.967Z" stroke="white" stroke-linecap="round" stroke-linejoin="round"/>
</g>
<text fill="white" xml:space="preserve" style="white-space: pre" font-family="Graphik" font-size="14" letter-spacing="0em"><tspan x="46" y="590.326">Payment Pages</tspan></text>
</g>
<g clip-path="url(#clip22_196_4969)">
<path d="M22 612L24 609.333H32L34 612M22 612V621.333C22 621.687 22.1405 622.026 22.3905 622.276C22.6406 622.526 22.9797 622.667 23.3333 622.667H32.6667C33.0203 622.667 33.3594 622.526 33.6095 622.276C33.8595 622.026 34 621.687 34 621.333V612M22 612H34M30.6667 614.667C30.6667 615.374 30.3857 616.052 29.8856 616.552C29.3855 617.052 28.7072 617.333 28 617.333C27.2928 617.333 26.6145 617.052 26.1144 616.552C25.6143 616.052 25.3333 615.374 25.3333 614.667" stroke="white" stroke-linecap="round" stroke-linejoin="round"/>
<text fill="white" xml:space="preserve" style="white-space: pre" font-family="Graphik" font-size="14" letter-spacing="0em"><tspan x="46" y="620.326">Products</tspan></text>
</g>
<g clip-path="url(#clip23_196_4969)">
<g clip-path="url(#clip24_196_4969)">
<path d="M22 647L22 651.667C22 652.02 22.1405 652.359 22.3905 652.609C22.6406 652.86 22.9797 653 23.3333 653H32.6667C33.0203 653 33.3594 652.86 33.6095 652.609C33.8595 652.359 34 652.02 34 651.667V647" stroke="white" stroke-linecap="round" stroke-linejoin="round"/>
<path d="M21 643.667L23 639H33L35 643.667V645.764C35 646.447 34.4466 647 33.7639 647C33.2957 647 32.8677 646.735 32.6584 646.317L32.618 646.236C32.3634 645.727 31.6366 645.727 31.382 646.236C31.1479 646.704 30.6693 647 30.1459 647H29.8541C29.3307 647 28.8521 646.704 28.618 646.236C28.3634 645.727 27.6366 645.727 27.382 646.236C27.1479 646.704 26.6693 647 26.1459 647H25.8541C25.3307 647 24.8521 646.704 24.618 646.236C24.3634 645.727 23.6366 645.727 23.382 646.236L23.3416 646.317C23.1323 646.735 22.7043 647 22.2361 647C21.5534 647 21 646.447 21 645.764V643.667Z" stroke="white" stroke-linecap="round" stroke-linejoin="round"/>
</g>
<text fill="white" xml:space="preserve" style="white-space: pre" font-family="Graphik" font-size="14" letter-spacing="0em"><tspan x="46" y="650.326">Storefronts</tspan></text>
</g>
<g clip-path="url(#clip25_196_4969)">
<g clip-path="url(#clip26_196_4969)">
<path d="M26.5 683.125C26.9142 683.125 27.25 682.789 27.25 682.375C27.25 681.961 26.9142 681.625 26.5 681.625C26.0858 681.625 25.75 681.961 25.75 682.375C25.75 682.789 26.0858 683.125 26.5 683.125Z" stroke="white" stroke-linecap="round" stroke-linejoin="round"/>
<path d="M32.5 683.125C32.9142 683.125 33.25 682.789 33.25 682.375C33.25 681.961 32.9142 681.625 32.5 681.625C32.0858 681.625 31.75 681.961 31.75 682.375C31.75 682.789 32.0858 683.125 32.5 683.125Z" stroke="white" stroke-linecap="round" stroke-linejoin="round"/>
<path d="M20.875 668.875H23.125L25.15 678.175C25.2201 678.519 25.4086 678.827 25.6827 679.047C25.9568 679.266 26.2991 679.382 26.65 679.375H32.425C32.7759 679.382 33.1182 679.266 33.3923 679.047C33.6664 678.827 33.8549 678.519 33.925 678.175L35.125 671.875H24.325" stroke="white" stroke-linecap="round" stroke-linejoin="round"/>
</g>
<text fill="white" xml:space="preserve" style="white-space: pre" font-family="Graphik" font-size="14" letter-spacing="0em"><tspan x="46" y="680.326">Orders</tspan></text>
</g>
<g clip-path="url(#clip27_196_4969)">
<path d="M34.6666 702C34.6666 701.267 34.0666 700.667 33.3333 700.667H22.6666C21.9333 700.667 21.3333 701.267 21.3333 702M34.6666 702V710C34.6666 710.733 34.0666 711.333 33.3333 711.333H22.6666C21.9333 711.333 21.3333 710.733 21.3333 710V702M34.6666 702L27.9999 706.667L21.3333 702" stroke="white" stroke-linecap="round" stroke-linejoin="round"/>
<text fill="white" xml:space="preserve" style="white-space: pre" font-family="Graphik" font-size="14" letter-spacing="0em"><tspan x="46" y="710.326">Invoices</tspan></text>
</g>
<g clip-path="url(#clip28_196_4969)">
<path d="M20.6667 761C20.6667 761 23.3334 755.667 28.0001 755.667C32.6667 755.667 35.3334 761 35.3334 761C35.3334 761 32.6667 766.333 28.0001 766.333C23.3334 766.333 20.6667 761 20.6667 761Z" stroke="white" stroke-linecap="round" stroke-linejoin="round"/>
<path d="M28.0001 763C29.1047 763 30.0001 762.105 30.0001 761C30.0001 759.896 29.1047 759 28.0001 759C26.8955 759 26.0001 759.896 26.0001 761C26.0001 762.105 26.8955 763 28.0001 763Z" stroke="white" stroke-linecap="round" stroke-linejoin="round"/>
<text fill="white" xml:space="preserve" style="white-space: pre" font-family="Graphik" font-size="14" letter-spacing="0em"><tspan x="46" y="765.326">Audit Logs</tspan></text>
</g>
<g clip-path="url(#clip29_196_4969)">
<g clip-path="url(#clip30_196_4969)">
<path d="M28.0001 793C29.1047 793 30.0001 792.105 30.0001 791C30.0001 789.896 29.1047 789 28.0001 789C26.8955 789 26.0001 789.896 26.0001 791C26.0001 792.105 26.8955 793 28.0001 793Z" stroke="white" stroke-linecap="round" stroke-linejoin="round"/>
<path d="M32.9334 793C32.8447 793.201 32.8182 793.424 32.8574 793.64C32.8966 793.857 32.9997 794.056 33.1534 794.213L33.1934 794.253C33.3174 794.377 33.4157 794.524 33.4828 794.686C33.5499 794.848 33.5845 795.022 33.5845 795.197C33.5845 795.372 33.5499 795.545 33.4828 795.707C33.4157 795.869 33.3174 796.016 33.1934 796.14C33.0696 796.264 32.9225 796.362 32.7607 796.429C32.5988 796.497 32.4253 796.531 32.2501 796.531C32.0749 796.531 31.9014 796.497 31.7395 796.429C31.5776 796.362 31.4306 796.264 31.3067 796.14L31.2667 796.1C31.1096 795.946 30.9101 795.843 30.6938 795.804C30.4775 795.765 30.2545 795.791 30.0534 795.88C29.8562 795.965 29.6881 796.105 29.5696 796.284C29.4512 796.463 29.3876 796.672 29.3867 796.887V797C29.3867 797.354 29.2463 797.693 28.9962 797.943C28.7462 798.193 28.407 798.333 28.0534 798.333C27.6998 798.333 27.3607 798.193 27.1106 797.943C26.8606 797.693 26.7201 797.354 26.7201 797V796.94C26.7149 796.719 26.6435 796.505 26.5151 796.326C26.3867 796.146 26.2072 796.01 26.0001 795.933C25.799 795.845 25.576 795.818 25.3597 795.857C25.1434 795.897 24.9439 796 24.7867 796.153L24.7467 796.193C24.6229 796.317 24.4759 796.416 24.314 796.483C24.1521 796.55 23.9786 796.584 23.8034 796.584C23.6282 796.584 23.4547 796.55 23.2928 796.483C23.131 796.416 22.9839 796.317 22.8601 796.193C22.7361 796.07 22.6378 795.923 22.5707 795.761C22.5036 795.599 22.469 795.425 22.469 795.25C22.469 795.075 22.5036 794.901 22.5707 794.739C22.6378 794.578 22.7361 794.431 22.8601 794.307L22.9001 794.267C23.0538 794.11 23.1569 793.91 23.1961 793.694C23.2353 793.478 23.2088 793.254 23.1201 793.053C23.0356 792.856 22.8953 792.688 22.7164 792.57C22.5375 792.451 22.3279 792.388 22.1134 792.387H22.0001C21.6465 792.387 21.3073 792.246 21.0573 791.996C20.8072 791.746 20.6667 791.407 20.6667 791.053C20.6667 790.7 20.8072 790.361 21.0573 790.111C21.3073 789.861 21.6465 789.72 22.0001 789.72H22.0601C22.2807 789.715 22.4948 789.643 22.6743 789.515C22.8538 789.387 22.9906 789.207 23.0667 789C23.1555 788.799 23.182 788.576 23.1428 788.36C23.1035 788.143 23.0004 787.944 22.8467 787.787L22.8067 787.747C22.6828 787.623 22.5844 787.476 22.5173 787.314C22.4502 787.152 22.4157 786.979 22.4157 786.803C22.4157 786.628 22.4502 786.455 22.5173 786.293C22.5844 786.131 22.6828 785.984 22.8067 785.86C22.9306 785.736 23.0776 785.638 23.2395 785.571C23.4014 785.504 23.5749 785.469 23.7501 785.469C23.9253 785.469 24.0988 785.504 24.2607 785.571C24.4225 785.638 24.5696 785.736 24.6934 785.86L24.7334 785.9C24.8905 786.054 25.0901 786.157 25.3064 786.196C25.5226 786.235 25.7457 786.209 25.9467 786.12H26.0001C26.1973 786.036 26.3654 785.895 26.4839 785.716C26.6023 785.538 26.6659 785.328 26.6667 785.113V785C26.6667 784.646 26.8072 784.307 27.0573 784.057C27.3073 783.807 27.6465 783.667 28.0001 783.667C28.3537 783.667 28.6928 783.807 28.9429 784.057C29.1929 784.307 29.3334 784.646 29.3334 785V785.06C29.3343 785.275 29.3978 785.484 29.5163 785.663C29.6347 785.842 29.8029 785.982 30.0001 786.067C30.2012 786.155 30.4242 786.182 30.6405 786.143C30.8567 786.104 31.0563 786 31.2134 785.847L31.2534 785.807C31.3772 785.683 31.5243 785.584 31.6862 785.517C31.848 785.45 32.0215 785.416 32.1967 785.416C32.372 785.416 32.5455 785.45 32.7073 785.517C32.8692 785.584 33.0162 785.683 33.1401 785.807C33.264 785.931 33.3624 786.078 33.4295 786.239C33.4966 786.401 33.5311 786.575 33.5311 786.75C33.5311 786.925 33.4966 787.099 33.4295 787.261C33.3624 787.423 33.264 787.57 33.1401 787.693L33.1001 787.733C32.9464 787.891 32.8433 788.09 32.8041 788.306C32.7649 788.523 32.7913 788.746 32.8801 788.947V789C32.9646 789.197 33.1049 789.365 33.2838 789.484C33.4626 789.602 33.6722 789.666 33.8867 789.667H34.0001C34.3537 789.667 34.6928 789.807 34.9429 790.057C35.1929 790.307 35.3334 790.646 35.3334 791C35.3334 791.354 35.1929 791.693 34.9429 791.943C34.6928 792.193 34.3537 792.333 34.0001 792.333H33.9401C33.7256 792.334 33.516 792.398 33.3371 792.516C33.1582 792.635 33.0179 792.803 32.9334 793Z" stroke="white" stroke-linecap="round" stroke-linejoin="round"/>
</g>
<text fill="white" xml:space="preserve" style="white-space: pre" font-family="Graphik" font-size="14" letter-spacing="0em"><tspan x="46" y="795.326">Settings</tspan></text>
</g>
<line opacity="0.1" x1="20" y1="730.5" x2="200" y2="730.5" stroke="white"/>
</g>
<defs>
<filter id="filter0_d_196_4969" x="214" y="68" width="1229" height="755" filterUnits="userSpaceOnUse" color-interpolation-filters="sRGB">
<feFlood flood-opacity="0" result="BackgroundImageFix"/>
<feColorMatrix in="SourceAlpha" type="matrix" values="0 0 0 0 0 0 0 0 0 0 0 0 0 0 0 0 0 0 127 0" result="hardAlpha"/>
<feOffset dx="1"/>
<feGaussianBlur stdDeviation="1"/>
<feColorMatrix type="matrix" values="0 0 0 0 0 0 0 0 0 0 0 0 0 0 0 0 0 0 0.03 0"/>
<feBlend mode="normal" in2="BackgroundImageFix" result="effect1_dropShadow_196_4969"/>
<feBlend mode="normal" in="SourceGraphic" in2="effect1_dropShadow_196_4969" result="shape"/>
</filter>
<filter id="filter1_d_196_4969" x="213" y="69" width="1229" height="70" filterUnits="userSpaceOnUse" color-interpolation-filters="sRGB">
<feFlood flood-opacity="0" result="BackgroundImageFix"/>
<feColorMatrix in="SourceAlpha" type="matrix" values="0 0 0 0 0 0 0 0 0 0 0 0 0 0 0 0 0 0 127 0" result="hardAlpha"/>
<feOffset dy="1"/>
<feGaussianBlur stdDeviation="1"/>
<feColorMatrix type="matrix" values="0 0 0 0 0 0 0 0 0 0 0 0 0 0 0 0 0 0 0.03 0"/>
<feBlend mode="normal" in2="BackgroundImageFix" result="effect1_dropShadow_196_4969"/>
<feBlend mode="normal" in="SourceGraphic" in2="effect1_dropShadow_196_4969" result="shape"/>
</filter>
<clipPath id="clip0_196_4969">
<rect width="1440" height="821" fill="white"/>
</clipPath>
<clipPath id="clip1_196_4969">
<rect width="60" height="52" fill="white" transform="translate(798 236)"/>
</clipPath>
<clipPath id="clip2_196_4969">
<rect width="338" height="38" fill="white" transform="translate(245 85)"/>
</clipPath>
<clipPath id="clip3_196_4969">
<rect width="272" height="38" fill="white" transform="translate(246 26)"/>
</clipPath>
<clipPath id="clip4_196_4969">
<rect width="120" height="38" fill="white" transform="translate(246 26)"/>
</clipPath>
<clipPath id="clip5_196_4969">
<rect width="112" height="38" fill="white" transform="translate(406 26)"/>
</clipPath>
<clipPath id="clip6_196_4969">
<rect width="66" height="20" fill="white" transform="translate(20 96)"/>
</clipPath>
<clipPath id="clip7_196_4969">
<rect width="109" height="20" fill="white" transform="translate(20 166)"/>
</clipPath>
<clipPath id="clip8_196_4969">
<rect width="98" height="20" fill="white" transform="translate(20 196)"/>
</clipPath>
<clipPath id="clip9_196_4969">
<rect width="78" height="20" fill="white" transform="translate(20 226)"/>
</clipPath>
<clipPath id="clip10_196_4969">
<rect width="83" height="20" fill="white" transform="translate(20 256)"/>
</clipPath>
<clipPath id="clip11_196_4969">
<rect width="117" height="20" fill="white" transform="translate(20 286)"/>
</clipPath>
<clipPath id="clip12_196_4969">
<rect width="61" height="20" fill="white" transform="translate(20 316)"/>
</clipPath>
<clipPath id="clip13_196_4969">
<rect width="16" height="16" fill="white" transform="translate(20 318)"/>
</clipPath>
<clipPath id="clip14_196_4969">
<rect width="143" height="20" fill="white" transform="translate(20 346)"/>
</clipPath>
<clipPath id="clip15_196_4969">
<rect width="113" height="20" fill="white" transform="translate(20 376)"/>
</clipPath>
<clipPath id="clip16_196_4969">
<rect width="14" height="14" fill="white" transform="translate(20 409)"/>
</clipPath>
<clipPath id="clip17_196_4969">
<rect width="86" height="20" fill="white" transform="translate(20 476)"/>
</clipPath>
<clipPath id="clip18_196_4969">
<rect width="16" height="16" fill="white" transform="translate(20 478)"/>
</clipPath>
<clipPath id="clip19_196_4969">
<rect width="78" height="20" fill="white" transform="translate(20 506)"/>
</clipPath>
<clipPath id="clip20_196_4969">
<rect width="126" height="20" fill="white" transform="translate(20 576)"/>
</clipPath>
<clipPath id="clip21_196_4969">
<rect width="16" height="16" fill="white" transform="translate(20 578)"/>
</clipPath>
<clipPath id="clip22_196_4969">
<rect width="85" height="20" fill="white" transform="translate(20 606)"/>
</clipPath>
<clipPath id="clip23_196_4969">
<rect width="100" height="20" fill="white" transform="translate(20 636)"/>
</clipPath>
<clipPath id="clip24_196_4969">
<rect width="16" height="16" fill="white" transform="translate(20 638)"/>
</clipPath>
<clipPath id="clip25_196_4969">
<rect width="72" height="20" fill="white" transform="translate(20 666)"/>
</clipPath>
<clipPath id="clip26_196_4969">
<rect width="16" height="16" fill="white" transform="translate(20 668)"/>
</clipPath>
<clipPath id="clip27_196_4969">
<rect width="81" height="20" fill="white" transform="translate(20 696)"/>
</clipPath>
<clipPath id="clip28_196_4969">
<rect width="96" height="20" fill="white" transform="translate(20 751)"/>
</clipPath>
<clipPath id="clip29_196_4969">
<rect width="81" height="20" fill="white" transform="translate(20 781)"/>
</clipPath>
<clipPath id="clip30_196_4969">
<rect width="16" height="16" fill="white" transform="translate(20 783)"/>
</clipPath>
</defs>
</svg>
